PathFileType	4	(X/Y/Z)	./resultDataOpenSim/trcMotMarkerGrf/sub06/qtm-13-07.trc
DataRate	CameraRate	NumFrames	NumMarkers	Units	OrigDataRate	OrigDataStartFrame	OrigNumFrames
250.000000	250.000000	12	24	m	250.000000	390	519
Frame#	Time	L.Toe.Tip			R.Toe.Tip			L.Ankle.Lat			R.Ankle.Lat			L.Ankle.Med			R.Ankle.Med			L.Heel			R.Heel			L.Knee.Lat			R.Knee.Lat			L.Knee.Med			R.Knee.Med			L.Thigh.Upper			R.Thigh.Upper			L.ASIS			R.ASIS			V.Sacral			L.Acromium			R.Acromium			C7			L.Elbow			R.Elbow			L.Wrist.Lat			R.Wrist.Lat
		X1	Y1	Z1	X2	Y2	Z2	X3	Y3	Z3	X4	Y4	Z4	X5	Y5	Z5	X6	Y6	Z6	X7	Y7	Z7	X8	Y8	Z8	X9	Y9	Z9	X10	Y10	Z10	X11	Y11	Z11	X12	Y12	Z12	X13	Y13	Z13	X14	Y14	Z14	X15	Y15	Z15	X16	Y16	Z16	X17	Y17	Z17	X18	Y18	Z18	X19	Y19	Z19	X20	Y20	Z20	X21	Y21	Z21	X22	Y22	Z22	X23	Y23	Z23	X24	Y24	Z24

390	1.556	1.5694223	0.12687032	-0.12080653	0.92566528	0.035014025	0.018525738	1.440966	0.11328527	-0.14338684	0.79844511	0.084231212	0.04399229	1.4385006	0.12635737	-0.059844391	0.82499998	0.10552525	-0.041218229	1.3857686	0.056248608	-0.099054372	0.74159811	0.078612821	-0.016387204	1.3356022	0.46649557	-0.13738392	0.98161319	0.43146989	0.089597578	1.3124219	0.45042117	-0.015604038	0.96055412	0.43689223	-0.040722336	1.1415127	0.80652132	-0.18021964	1.0550109	0.78580202	0.1551462	1.1979346	0.85228911	-0.12088945	1.1662597	0.84011008	0.1258573	0.99605868	0.91729435	-0.017123656	1.1063132	1.3251079	-0.18760254	1.1201081	1.3204641	0.17311232	1.0345884	1.3598129	-0.0042126302	0.99610168	1.0345428	-0.23492583	1.1588879	1.002983	0.27415562	1.0557714	0.80786695	-0.29972965	1.3940302	1.0458695	0.18783234
391	1.56	1.5784216	0.12766715	-0.11948665	0.92576769	0.035013376	0.018573396	1.4499392	0.11279022	-0.14149767	0.79947386	0.085304639	0.044560707	1.4473644	0.12604381	-0.058031108	0.82584084	0.10649665	-0.040725262	1.3952707	0.055410788	-0.096745778	0.74227628	0.080506775	-0.015729517	1.3417583	0.4649663	-0.13624979	0.98628353	0.43076717	0.08966968	1.3180475	0.44876739	-0.014369971	0.96534791	0.43625311	-0.040625232	1.1485206	0.80500928	-0.18041279	1.060908	0.78461677	0.15455926	1.204965	0.85098344	-0.1209862	1.1726735	0.83872463	0.12572596	1.0025445	0.91615276	-0.018022023	1.1124286	1.3237625	-0.18791245	1.1259655	1.3191973	0.17289986	1.0405044	1.3586377	-0.0045870447	1.0015195	1.0336692	-0.23467695	1.1655985	1.0017729	0.27391995	1.0593177	0.80671305	-0.30021865	1.4003194	1.0456976	0.18708511
392	1.564	1.586823	0.127922	-0.11812436	0.92588522	0.035018809	0.018621467	1.4583296	0.11208471	-0.13958442	0.80065197	0.086394722	0.045165346	1.4556887	0.12555038	-0.056127873	0.82674546	0.10753975	-0.040199625	1.4040139	0.054460583	-0.094320054	0.74299913	0.082514045	-0.015006133	1.3479703	0.46356371	-0.13512859	0.99109691	0.43006541	0.089775596	1.3237534	0.44738347	-0.013179719	0.97027736	0.4355984	-0.040500447	1.1555799	0.80353394	-0.180624	1.0669938	0.78347612	0.15406642	1.21204	0.84968138	-0.12112598	1.1791418	0.83735934	0.12559669	1.0091079	0.91502001	-0.018784693	1.1185756	1.3224317	-0.18824177	1.1318362	1.3179444	0.17267302	1.0464921	1.3574354	-0.0049522332	1.007001	1.0327678	-0.23447838	1.1722236	1.0005742	0.27367033	1.0630004	0.80556931	-0.30069649	1.4065616	1.0453656	0.18636342
393	1.568	1.5945584	0.12766952	-0.11667762	0.92602344	0.035035701	0.018669871	1.4661075	0.11115636	-0.13762234	0.80188756	0.087584811	0.045768331	1.4634061	0.12489758	-0.05414485	0.82772551	0.10865528	-0.03964348	1.4120121	0.053368172	-0.091829416	0.74376101	0.084648404	-0.014189283	1.3542027	0.46226129	-0.13404504	0.99603839	0.42935842	0.089914169	1.3295367	0.44627765	-0.012057647	0.97535081	0.43492829	-0.040347581	1.1626902	0.80211694	-0.18084957	1.0735204	0.78234376	0.1538212	1.2191287	0.8483804	-0.12128728	1.1856498	0.83602079	0.12545686	1.0157543	0.9138699	-0.019417146	1.1247556	1.3211172	-0.18858633	1.1377284	1.3167029	0.17243518	1.0525286	1.3562268	-0.0053259092	1.0125459	1.0318402	-0.23433136	1.1787695	0.99937056	0.27339555	1.0668292	0.80443687	-0.3011667	1.4127624	1.0448818	0.18566603
394	1.572	1.6016192	0.1269436	-0.11510083	0.92618703	0.035064774	0.018726567	1.4732463	0.10999621	-0.13558222	0.80307453	0.088964812	0.046342183	1.470418	0.12412049	-0.052102652	0.82878771	0.10984426	-0.039053161	1.4192826	0.052131599	-0.089388345	0.74458874	0.086904992	-0.013299296	1.3604249	0.46102692	-0.13299794	1.0010953	0.42864192	0.090084014	1.3353968	0.44544057	-0.011014637	0.98056315	0.43423286	-0.040173632	1.1698353	0.80077473	-0.1810789	1.0807513	0.78114669	0.15395901	1.2261962	0.84708498	-0.12143884	1.1921944	0.83471171	0.12529353	1.0224506	0.91267811	-0.020137702	1.1309679	1.3198207	-0.18895161	1.1436454	1.3154756	0.172192	1.0585974	1.355022	-0.0057202165	1.0181556	1.0308975	-0.23422297	1.1852375	0.99816029	0.27308538	1.0708106	0.8033136	-0.30162668	1.4189283	1.0442513	0.1849954
395	1.576	1.6080425	0.12576566	-0.11336216	0.92637601	0.035096398	0.018802299	1.4797528	0.1085924	-0.13346631	0.80422122	0.090516431	0.046922357	1.4766969	0.12321496	-0.050015523	0.82993492	0.11110731	-0.038422087	1.4258373	0.050744605	-0.087083645	0.74551947	0.08926813	-0.012385624	1.3666143	0.45982859	-0.1319869	1.0062642	0.42791775	0.090285335	1.3413408	0.4448368	-0.010050389	0.98589895	0.43350053	-0.039988947	1.1769859	0.7995129	-0.1813011	1.0886319	0.77985096	0.15443575	1.2332355	0.84580913	-0.12156599	1.1987807	0.83342864	0.1250988	1.0292051	0.91143556	-0.021130486	1.1372101	1.3185484	-0.18934761	1.1495919	1.3142667	0.17193678	1.0646896	1.3538307	-0.0061394057	1.0238338	1.0299543	-0.23413335	1.1916315	0.9969556	0.27273714	1.0749394	0.8021947	-0.30207096	1.4250619	1.0434755	0.18435309
396	1.58	1.6138643	0.12413806	-0.1114475	0.92658756	0.035118613	0.0188999	1.4856538	0.10693365	-0.13131435	0.80543451	0.092136174	0.04757778	1.4823236	0.12208174	-0.047904517	0.83117048	0.11244507	-0.03774701	1.4316802	0.049188061	-0.084912158	0.74657072	0.091731892	-0.011474266	1.3727597	0.45864174	-0.13101471	1.0115474	0.42718936	0.090517133	1.3473759	0.44440711	-0.0091566953	0.9913547	0.43272858	-0.039793813	1.1841273	0.79833649	-0.18152267	1.0965552	0.77854148	0.15493838	1.2402635	0.84457059	-0.12167329	1.2054146	0.83216569	0.12487716	1.0360753	0.91016278	-0.022391448	1.1434855	1.3173059	-0.18977684	1.1555762	1.3130773	0.17165458	1.0708068	1.3526572	-0.0065836286	1.0295844	1.0290232	-0.23405435	1.1979415	0.99576112	0.27234781	1.0792093	0.80108316	-0.30249712	1.4311593	1.0425527	0.18374053
397	1.584	1.619114	0.12204396	-0.10935382	0.9268205	0.03513	0.01900714	1.4909731	0.10502008	-0.12917344	0.80677496	0.093769068	0.048323766	1.487402	0.12059527	-0.045802486	0.83250007	0.11385912	-0.03703042	1.4368109	0.047450821	-0.082818786	0.74774299	0.094301554	-0.010560855	1.3788672	0.4574545	-0.13008183	1.0169498	0.42645694	0.09077646	1.3535002	0.44408278	-0.0083211459	0.99695483	0.43192778	-0.039570202	1.1912708	0.79725769	-0.1817659	1.1037878	0.77735464	0.15511141	1.2472992	0.8433797	-0.12177029	1.2121044	0.83092316	0.12464555	1.0431254	0.9089072	-0.023645331	1.1497977	1.316095	-0.19023189	1.161602	1.3119067	0.17133935	1.0769574	1.351497	-0.0070491872	1.0354121	1.0281091	-0.23399803	1.2041402	0.99457021	0.27191682	1.083626	0.79999026	-0.3029076	1.4372109	1.0414809	0.18315879
398	1.588	1.6238331	0.11944161	-0.10707408	0.92707425	0.035137539	0.019105871	1.4957338	0.10286673	-0.12706711	0.80822013	0.095439144	0.049119526	1.4919719	0.11872849	-0.043736397	0.83393195	0.11534924	-0.036277013	1.4412367	0.04554341	-0.080767623	0.74903491	0.096983716	-0.0096327388	1.3849567	0.45627047	-0.12918369	1.0224706	0.4257177	0.091061868	1.3597062	0.44380107	-0.0075350307	1.0027292	0.43111454	-0.039294923	1.1984332	0.79628634	-0.18204467	1.1101707	0.77633438	0.15488003	1.2543583	0.84223494	-0.12186461	1.2188654	0.82971488	0.12441999	1.0503552	0.90773325	-0.024463123	1.1561429	1.3149166	-0.1907044	1.167667	1.3107566	0.17099353	1.0831439	1.3503445	-0.0075299588	1.0413213	1.0272078	-0.23397785	1.2102172	0.99338406	0.27145875	1.0882023	0.79892206	-0.30330265	1.4432066	1.040262	0.18260551
399	1.592	1.6280799	0.11626413	-0.10459432	0.92734599	0.035145995	0.019191504	1.4999582	0.10049321	-0.12499382	0.80974297	0.09717803	0.049932453	1.4960298	0.116551	-0.041714351	0.83547808	0.11690849	-0.035487745	1.4449822	0.043490387	-0.078768111	0.75044712	0.099786298	-0.0086767593	1.3910492	0.45510622	-0.1283121	1.0281011	0.42496511	0.091377034	1.3659802	0.4435179	-0.0067987932	1.0086794	0.43029302	-0.038963312	1.2056221	0.79541819	-0.18234874	1.1161133	0.77541986	0.15442621	1.261457	0.84112944	-0.12196342	1.2257065	0.82855601	0.1242021	1.0576188	0.90669481	-0.024689329	1.1625135	1.3137713	-0.19119161	1.1737657	1.309628	0.1706163	1.0893547	1.3491948	-0.0080275773	1.0473102	1.0263115	-0.23399098	1.2161964	0.99221613	0.27099648	1.0929471	0.79787552	-0.30367645	1.4491411	1.0389003	0.18207556
400	1.596	1.6318897	0.11249032	-0.10192637	0.92763108	0.0351541	0.019277818	1.5036611	0.097911057	-0.12294357	0.81133598	0.098986301	0.050753157	1.4995701	0.11414011	-0.039732446	0.83715352	0.11852802	-0.034657947	1.4480855	0.041313799	-0.076845159	0.75198957	0.1027182	-0.0076836166	1.3971549	0.45397923	-0.12746159	1.0338315	0.42418855	0.091730145	1.3722892	0.44321393	-0.0061194643	1.0147903	0.42944709	-0.038590356	1.2128365	0.79463663	-0.18265161	1.122054	0.77453335	0.15394407	1.2686089	0.84006031	-0.12207166	1.2326168	0.82744429	0.12398278	1.0647219	0.90576871	-0.024672103	1.168904	1.312658	-0.19169552	1.1798874	1.3085225	0.17020521	1.0955769	1.3480467	-0.0085533931	1.0533679	1.025417	-0.23402898	1.222106	0.99107413	0.27053829	1.097866	0.7968455	-0.30402145	1.4550179	1.0373957	0.18156683
401	1.6	1.6352222	0.10825252	-0.099143388	0.92792503	0.035156592	0.019385199	1.506853	0.095121524	-0.12090965	0.81296997	0.10084372	0.051574085	1.5025833	0.11153977	-0.037790819	0.8389705	0.12020846	-0.033782917	1.4505907	0.039019719	-0.074997952	0.75368786	0.10577923	-0.0066578737	1.4032701	0.45289514	-0.1266318	1.0396677	0.42337949	0.092127917	1.3786118	0.44289128	-0.0055035167	1.0210631	0.42855566	-0.038187028	1.2200741	0.79392284	-0.18292894	1.1281902	0.7736266	0.15352584	1.2758197	0.83903038	-0.12219092	1.2395792	0.82636636	0.12375445	1.0716112	0.90483667	-0.024925843	1.1753123	1.3115756	-0.19221871	1.1860207	1.3074438	0.16976211	1.1018113	1.3469048	-0.0091158938	1.059487	1.0245315	-0.23409279	1.2279501	0.98994997	0.27007502	1.1029585	0.79582983	-0.30433413	1.4608477	1.0357433	0.18108415
